 <svg xmlns="http://www.w3.org/2000/svg" width="800" height="891" viewBox="0 0 800 891" fill="none">
<path d="M360.78 885.405C357.936 885.933 355.1 886.51 352.245 886.98C346.861 887.87 341.493 888.669 335.982 888.711C331.217 888.749 326.463 889.708 321.689 890.057C310.993 890.842 300.282 891.259 289.552 890.651C280.984 890.164 272.385 889.982 263.847 889.227C245.527 887.636 227.31 885.031 209.278 881.425C188.824 877.306 168.54 872.442 148.658 866.007C132.082 860.627 116.189 853.331 101.303 844.268C98.5721 842.61 96.3719 840.103 93.8401 838.102C88.4503 833.843 85.07 828.052 81.5929 822.325C74.3347 810.376 67.7453 798.085 62.5905 785.072C61.2361 781.656 60.1748 778.121 59.0139 774.627C57.5683 770.293 57.9774 765.835 57.9774 760.746C59.4451 761.401 60.5562 761.725 61.4794 762.338C71.5121 769.036 82.376 774.397 93.7959 778.284C101.491 780.887 109.376 782.93 117.185 785.194C117.572 785.307 118.014 785.26 118.647 785.304C97.2619 748.026 87.1374 708.399 91.0457 665.311C86.4824 660.532 81.6482 655.579 76.9494 650.51C61.2767 633.618 47.7564 614.849 36.6975 594.633C21.1477 566.408 10.2989 535.838 4.57716 504.124C2.83032 494.5 1.95414 484.704 0.983979 474.956C0.330124 468.515 0.00171314 462.045 0 455.572C0.0165839 448.109 0.456058 440.613 0.950811 433.15C1.44556 425.688 2.05641 418.269 2.92706 410.864C5.74356 386.895 11.9625 363.777 20.8211 341.355C22.6675 336.687 24.6907 332.082 26.5619 327.425C26.9564 326.518 27.1938 325.551 27.264 324.564C27.5404 317.542 27.7716 310.517 27.9577 303.489C28.2092 294.091 28.2645 284.713 28.6764 275.335C29.0882 265.957 29.782 256.664 30.4287 247.336C30.8793 240.785 31.2358 234.215 31.9904 227.711C33.5751 214.02 35.2906 200.346 37.1369 186.688C39.3481 170.223 42.7119 153.974 46.6506 137.846C52.1426 115.375 59.1023 93.39 68.8039 72.3395C75.7139 57.367 83.7764 43.1048 94.7246 30.6586C103.401 20.7939 113.293 12.56 126.063 8.48863C135.037 5.62791 144.153 3.671 153.703 4.61905C160.463 5.29623 166.762 7.38304 172.871 10.2521C186.923 16.8497 198.081 26.9963 207.852 38.8538C220.212 53.8705 229.828 70.5816 238.17 88.0666C247.899 108.456 255.674 129.595 262.217 151.202C262.474 152.05 262.711 152.904 263.06 154.112C292.941 150.19 322.911 149.844 352.994 154.35C355.407 148.545 357.715 142.899 360.112 137.282C370.374 113.205 382.099 89.8853 396.491 67.9834C406.165 53.2763 416.884 39.4232 429.792 27.3915C441.268 16.6921 453.982 7.98282 469.317 3.67377C476.86 1.55655 484.519 -0.0299742 492.352 0.000429679C500.124 0.0308335 507.554 1.79702 514.715 4.97561C529.115 11.3521 540.299 21.5125 549.505 34.061C560.976 49.6914 569.036 67.0713 575.556 85.2169C582.811 105.413 587.969 126.174 591.864 147.26C594.721 162.689 597.079 178.184 598.594 193.806C598.718 195.094 599.022 196.362 599.288 197.907C601.352 193.949 603.107 190.107 605.28 186.52C612.361 174.836 620.344 163.825 630.183 154.261C631.955 152.539 633.884 151.132 636.524 150.842C639.012 150.566 640.908 151.395 642.467 153.186C643.276 154.11 644.008 155.099 644.656 156.144C649.772 164.485 656.452 171.536 663.003 178.714C669.681 186.031 678.022 190.091 687.602 191.957C690.231 192.468 692.887 192.907 695.452 193.645C698.935 194.649 701.643 193.504 703.78 190.898C705.324 188.986 706.711 186.953 707.926 184.817C709.308 182.401 710.674 179.928 711.688 177.338C714.756 169.51 719.463 162.772 725.278 156.826C729.444 152.567 738.247 145.87 744.013 145.107C742.122 146.749 740.508 148.186 738.861 149.582C732.667 154.833 729.123 161.191 729.167 169.621C729.189 174.355 728.252 179.137 727.379 183.828C725.768 192.465 724.048 201.089 722.064 209.646C720.35 217.054 717.216 223.986 714.181 230.945C711.074 238.074 705.251 240.489 698.186 239.959C688.164 239.21 678.36 237.112 669.012 233.22C664.313 231.269 660.222 228.375 656.278 225.251C651.466 221.44 646.723 217.545 641.905 213.742C640.33 212.498 638.638 211.393 636.952 210.298C632.339 207.299 628.848 207.504 625.009 211.578C622.227 214.472 619.796 217.684 617.765 221.147C611.549 232.034 606.767 243.535 603.71 255.749C602.654 259.964 603.157 264.193 603.157 268.417C603.11 278.262 603.143 288.105 603.141 297.947C603.141 298.843 603.105 299.738 603.08 300.631C602.862 308.11 602.645 315.589 602.427 323.066C602.448 323.574 602.495 324.081 602.568 324.584C603.928 323.94 605.103 323.354 606.303 322.82C612.342 320.142 618.315 319.86 624.293 323.121C630.617 326.571 636.082 331.137 641.557 335.745C645.15 338.755 648.744 341.784 652.583 344.437C656.87 347.395 661.745 348.829 667.022 349.136C671.997 349.413 675.762 347.334 678.611 343.647C680.627 340.978 682.347 338.099 683.741 335.059C686.889 328.354 688.716 321.165 689.609 313.881C690.776 304.362 694.416 295.855 698.824 287.56C701.331 282.861 703.974 278.212 706.563 273.541L707.205 273.831C706.992 274.616 706.796 275.41 706.563 276.189C703.998 284.837 701.43 293.483 698.857 302.129C697.097 307.991 697.318 314.042 697.097 320.048C696.972 323.511 697.097 326.983 697.072 330.452C697.022 342.76 695.792 354.949 692.467 366.812C687.028 386.232 675.585 401.085 657.804 410.803C652.063 413.938 645.805 415.367 639.202 415.635C634.661 415.817 630.147 416.699 625.634 417.362C624.669 417.506 623.743 418.004 622.837 418.418C621.668 418.954 621.369 419.914 621.455 421.182C621.922 428.291 622.541 435.4 622.698 442.517C622.873 450.442 622.931 458.394 622.458 466.288C621.676 479.766 619.838 493.161 616.96 506.352C615.523 512.886 613.732 519.342 612.107 525.838C611.977 526.366 611.88 526.902 611.701 527.756C612.292 527.706 612.701 527.756 613.047 527.632C623.362 523.875 634.108 521.827 644.805 519.564C657.572 516.871 669.838 512.775 680.759 505.503C696.889 494.762 706.956 479.878 709.996 460.575C710.74 455.856 710.953 451.053 711.378 446.287C712.127 437.979 712.174 429.568 714.186 421.428C716.599 411.666 721.663 403.393 728.819 396.293C739.623 385.574 751.94 377.005 765.304 369.836C769.812 367.42 774.649 365.607 778.604 362.174C781.186 359.935 783.488 357.608 784.541 354.255C785.718 350.51 787.814 347.207 789.577 343.733C792.8 337.375 795.539 330.778 798.474 324.277C798.806 323.542 799.104 322.793 800 322.24C798.988 326.087 798.201 330.015 796.899 333.763C795.439 337.956 795.039 342.174 795.019 346.568C794.992 352.268 794.107 357.851 791.979 363.238C789.566 369.344 785.848 374.211 780.448 378.047C764.798 389.17 753.333 403.728 745.502 421.243C741.539 430.107 737.211 438.811 733.2 447.653C729.33 456.183 725.781 464.864 721.829 473.358C718.269 481.003 716.464 489.187 713.894 497.128C709.709 510.061 705.928 523.179 699.156 535.086C691.928 547.8 684.783 560.578 675.259 571.795C663.398 585.739 648.603 594.75 630.57 598.108C620.83 599.924 611.01 601.303 601.22 602.859C591.635 604.392 582.253 606.997 573.251 610.626C572.267 611.021 571.206 611.637 570.586 612.456C567.095 617.085 563.732 621.809 560.219 626.643C563.745 628.802 567.35 630.789 570.722 633.114C574.531 635.762 578.411 637.583 583.204 638.042C590.852 638.771 597.828 641.964 604.423 645.781C615.609 652.257 627.795 655.024 640.521 655.759C645.612 656.055 650.554 654.8 655.079 652.489C662.624 648.633 668.727 643.133 672.326 635.33C673.614 632.536 674.244 629.418 674.999 626.403C676.519 620.322 678.39 614.382 681.978 609.142C686.431 602.638 692.525 598.218 699.922 595.767C703.404 594.603 706.736 593.032 709.85 591.087C710.871 590.428 712.018 589.988 713.219 589.796C710.002 594.155 706.671 598.437 703.609 602.903C701.87 605.497 700.342 608.226 699.037 611.063C696.041 617.406 692.727 623.655 691.574 630.687C691.055 633.865 690.847 637.097 690.353 640.281C689.468 645.991 688.752 651.754 687.417 657.362C686.661 660.516 685.296 663.491 683.398 666.121C679.449 671.505 675.336 676.854 670.684 681.599C663.951 688.457 655.291 691.738 645.808 692.783C641.516 693.258 637.19 693.443 632.58 693.783C633.094 694.646 633.531 695.477 634.061 696.249C643.321 709.72 651.198 723.974 658.039 738.814C659.285 741.523 659.94 744.508 660.819 747.382C661.486 749.555 660.698 751.136 658.962 752.601C649.65 760.45 640.319 768.281 631.181 776.332C621.585 784.79 611.25 792.159 600.36 798.845C588.552 806.092 577.084 813.903 565.183 820.985C558.394 825.026 551.034 828.102 543.928 831.607C541.534 832.787 539.129 833.95 536.741 835.122C536.153 833.939 535.586 832.742 534.967 831.573C533.076 828 529.945 825.913 526.26 824.663C523.344 823.663 520.923 825.186 518.366 826.43C508.258 831.352 498.316 832.43 488.164 825.935C481.481 821.659 473.963 821.109 466.26 823.585C454.112 827.488 446.608 835.471 444.068 848.055C443.62 850.266 443.07 852.477 442.567 854.689C440.148 849.899 438.365 845.1 439.319 839.672C440.392 833.552 442.525 827.939 447.495 823.995C455.511 817.637 464.502 813.406 474.947 812.881C478.731 812.693 482.647 812.966 486.279 812.079C499.325 808.887 508.621 799.492 509.129 784.716C509.452 775.382 506.415 767.026 500.599 759.442C499.867 760.285 499.176 760.995 498.576 761.777C495.594 765.68 492.728 769.677 489.649 773.499C484.624 779.74 478.557 784.494 470.527 786.31C465.137 787.529 459.684 787.416 454.22 787.319C450.903 787.267 447.487 787.104 444.294 787.811C434.814 789.92 427.135 795.097 421.008 802.618C420.311 803.472 419.454 804.196 418.669 804.978L418.556 804.876C418.888 804.061 419.109 803.162 419.573 802.444C423.871 795.898 429.235 790.12 435.444 785.348C441.649 780.589 448.711 777.59 455.856 774.685C460.831 772.656 465.715 770.348 469.792 766.777C475.909 761.418 480.701 754.981 484.441 747.764C487.83 741.224 491.238 734.693 494.532 728.106C496.393 724.386 499.375 722.178 503.377 721.749C509.508 721.075 513.242 717.468 515.915 712.352C516.912 710.447 517.065 708.452 516 705.917C514.674 707.852 513.679 709.458 512.556 710.959C510.32 713.946 507.888 716.915 503.941 717.41C497.523 718.214 493.513 721.907 490.552 727.324C485.917 735.81 479.773 743.142 472.788 749.779C465.417 756.772 456.481 760.721 446.652 762.493C442.147 763.285 437.558 763.487 433.001 763.093C428.465 762.709 423.993 762.04 419.413 762.521C412.636 763.228 406.325 765.008 400.773 769.207C396.878 772.148 393.84 775.807 390.916 779.624C390.692 779.917 390.123 779.945 389.714 780.097C392.826 774.229 396.347 768.554 398.697 761.929C397.624 762.076 396.873 762.136 396.143 762.289C382.823 765.052 369.371 767.032 355.789 767.687C342.522 768.328 329.221 768.494 315.951 767.36C305.412 766.462 294.851 765.774 284.34 764.63C267.373 762.756 250.706 758.78 234.721 752.794C214.31 745.263 194.56 736.053 175.671 725.259C164.261 718.709 152.876 712.05 141.95 704.74C130.455 697.045 119.52 688.515 108.34 680.347C108.009 680.331 107.677 680.34 107.348 680.375C107.182 681.81 106.947 683.255 106.988 684.69C107.154 690.591 107.176 696.511 107.693 702.379C108.26 708.794 109.059 715.215 110.197 721.553C114.316 744.48 123.785 765.359 135.568 785.207C139.99 792.654 145.538 799.431 150.543 806.532C151.992 808.588 153.987 810.374 154.07 813.165L151.337 813.187L150.123 813.115C135.084 812.09 120.753 808.082 107.005 802.159C98.749 798.602 90.8937 794.121 82.8588 790.053L81.1562 788.967L80.8604 789.359C81.2032 789.887 81.5431 790.418 81.8859 790.948L81.9937 791.114C82.1059 791.652 82.2631 792.18 82.4635 792.692C90.6864 809.359 100.429 825.073 111.991 839.636C113.323 841.319 115.225 842.693 117.113 843.782C129.659 850.968 143.158 855.943 156.848 860.427C157.448 860.623 158.144 860.529 158.783 860.573L158.835 860.59L160.817 861.325C162.282 861.864 163.722 862.489 165.215 862.925C182.47 867.958 199.999 871.8 217.73 874.755C232.02 877.138 246.354 879.219 260.821 880.175C271.943 880.911 283.068 881.801 294.204 882.11C311.515 882.58 328.818 882.041 346.043 880.009C351.35 880.736 356.04 883.138 360.78 885.405ZM568.392 110.032C568.411 109.957 568.458 109.877 568.444 109.814C568.403 109.678 568.353 109.545 568.295 109.416C568.222 108.876 568.106 108.343 567.95 107.821C563.735 97.1276 558.881 86.6978 553.414 76.5877C545.674 62.215 537.383 48.2099 526.879 35.6448C525.29 33.7459 523.482 32.0295 521.774 30.2301C521.55 30.7829 521.6 31.1008 521.755 31.3551C523.259 33.8427 524.677 36.3717 526.307 38.7626C536.73 54.0142 545.462 70.1891 552.994 87.0439C559.801 102.276 564.716 118.075 568.306 134.355C569.804 141.163 572.256 147.76 574.273 154.452L574.508 155.795C575.23 152.43 575.654 149.008 575.777 145.569C575.921 142.042 576.385 138.402 575.733 134.996C574.542 128.808 572.706 122.732 570.979 116.657C570.327 114.366 569.221 112.202 568.323 109.979L568.392 110.032ZM568.09 795.011L568.712 795.747L568.389 794.76C567.228 791.753 565.901 788.795 564.94 785.724C562.54 778.063 551.534 776.979 546.891 780.382C544.422 782.192 543.795 784.887 542.993 787.568C542.441 789.381 543.029 790.545 544.472 791.36C546.39 790.13 548.005 788.519 549.92 787.983C552.011 787.369 554.212 787.229 556.364 787.574C558.516 787.919 560.563 788.739 562.358 789.975C564.456 791.385 566.192 793.32 568.09 795.011ZM520.522 620.781C520.337 620.72 520.033 620.554 519.969 620.612C517.349 623.616 514.743 626.633 512.15 629.664C511.79 629.89 511.452 630.151 511.141 630.441C505.71 636.569 502.78 644.098 499.494 651.414C498.112 654.454 496.976 657.611 495.727 660.715C497.415 659.184 498.615 657.439 499.776 655.671C505.669 646.668 512.263 638.227 520.141 630.875C527.662 623.857 535.779 617.572 544.204 611.673C552.435 605.865 561.8 601.862 571.686 599.926C583.939 597.502 596.115 594.675 608.337 592.093C620.313 589.564 631.831 585.8 642.298 579.329C648.843 575.291 655.416 571.336 660.203 564.992C668.542 553.936 677.21 543.126 681.381 529.597C681.699 528.569 682.044 527.549 682.613 525.805C680.328 527.72 678.675 529.19 676.939 530.548C667.793 537.693 658.581 544.754 649.479 551.952C635.902 562.69 620.91 570.52 604.075 574.805C598.367 576.256 592.798 578.237 587.162 579.976C583.416 581.026 579.671 582.077 575.926 583.127C569.072 585.062 562.211 586.997 555.929 590.452C542.275 597.972 531.545 609.037 520.575 619.797C520.373 619.998 520.467 620.504 520.423 620.866L520.522 620.781ZM501.805 749.859C504.989 748.673 508.162 748.311 511.581 749.057C514.407 749.673 517.312 749.845 520.191 749.566C526.548 748.905 531.973 746.379 535.224 740.398C535.912 739.137 536.982 738.09 537.745 736.863C540.89 731.796 542.3 726.359 541.385 720.359C540.686 715.771 539.63 711.191 540.677 706.495C540.84 705.762 540.699 704.963 540.699 704.195C540.101 704.832 539.689 705.62 539.508 706.475C538.748 710.851 538.184 715.262 537.297 719.613C536.468 723.745 535.663 727.905 533.295 731.575C530.663 735.66 527.106 736.993 522.407 736.274C519.549 735.846 516.658 735.682 513.77 735.785C512.294 735.834 510.519 736.337 509.45 737.28C505.627 740.641 502.863 744.768 501.816 749.873C501.738 750.149 501.658 750.426 501.581 750.702L501.805 749.859ZM597.234 334.432C585.509 336.284 572.261 343.459 569.16 350.079L571.924 348.111C573.099 347.281 574.207 346.317 575.451 345.598C585.244 339.954 595.797 337.726 607.01 339.025C613.776 339.81 619.639 342.486 624.036 347.978C625.869 350.232 627.855 352.356 629.982 354.335C639.614 363.431 655.101 367.815 669.783 361.107C670.023 360.999 670.151 360.64 670.676 359.932C665.701 358.589 661.085 356.966 656.328 356.143C648.865 354.852 641.814 352.785 635.615 348.299C633.976 346.64 632.348 344.965 630.698 343.323C625.626 338.254 619.885 334.385 612.516 333.749C607.414 333.286 602.274 333.516 597.234 334.432ZM56.6617 275.791C57.1564 275.366 57.6184 274.904 58.0437 274.409C65.5645 264.414 73.5635 254.826 82.3032 245.876C85.8964 242.203 89.6582 238.704 93.2514 235.036C94.0529 234.207 94.9098 233.065 94.9927 231.996C95.5206 225.008 95.7942 218.002 96.2448 211.009C96.5958 205.572 97.1182 200.146 97.4996 194.701C97.776 190.832 97.9419 186.962 98.1575 183.079C98.409 181.763 98.7103 180.456 98.9037 179.132C100.286 169.322 101.496 159.482 103.066 149.703C105.117 136.926 107.867 124.275 111.892 111.964C114.465 104.139 117.486 96.4801 122.168 89.5425C125.861 84.0781 131.013 81.48 137.34 81.0903C139.337 81.018 141.326 81.3742 143.174 82.135C148.562 84.2854 151.743 88.7548 154.399 93.6332C158.595 101.336 161.243 109.628 163.44 118.07C168.302 136.762 171.118 155.806 172.979 175.008C173.155 176.818 173.484 178.601 173.775 180.652C176.262 179.577 178.36 178.576 180.533 177.741C190.951 173.735 201.377 169.756 211.81 165.804C212.363 165.69 212.902 165.602 213.438 165.455C220.765 163.476 228.087 161.437 235.423 159.518C239.488 158.457 243.607 157.6 247.932 156.597C247.532 155.256 247.225 154.206 246.904 153.161C241.169 134.353 234.221 115.936 226.105 98.0252C217.153 78.365 206.102 60.0812 191.37 44.1689C184.861 37.1373 177.528 31.1506 168.766 27.1124C165.14 25.454 161.519 23.6436 157.392 23.4915C156.442 23.2069 155.507 22.7867 154.534 22.6181C145.344 21.0454 136.535 22.3417 128.122 26.3081C118.431 30.8631 110.593 37.7482 103.73 45.8439C92.7843 58.7545 84.7024 73.3649 78.2236 88.9096C64.3124 122.299 56.7087 157.329 51.3632 192.916C49.9425 202.38 48.8341 211.896 47.8391 221.415C46.6616 232.717 45.6915 244.024 44.7766 255.335C44.3565 260.556 44.3012 265.802 44.0497 271.037C43.8617 274.934 43.5328 278.826 43.4305 282.723C43.32 286.778 43.4056 290.838 43.4056 294.885L43.9584 294.99L56.6617 275.791ZM202.965 708.3C203.241 708.493 203.468 708.781 203.767 708.852C210.953 710.845 218.139 712.904 225.381 714.773C232.844 716.708 240.456 717.564 248.104 718.255C252.089 718.64 256.072 719.085 260.066 719.4C272.841 720.37 285.495 719.239 297.966 716.536C314.76 712.896 331.261 708.286 347.132 701.517C362.48 694.969 377.323 687.592 390.604 677.368C391.61 676.594 392.577 675.773 393.564 674.974C386.64 676.237 379.982 678.145 373.006 678.567C377.151 675.919 381.369 673.507 385.629 671.171C393.467 666.87 401.018 662.169 408.017 656.552C416.533 649.722 422.464 641.453 423.949 630.397C424.117 629.136 424.405 627.892 424.753 626.013C416.419 632.428 408.332 638.025 399.451 642.32C402.953 637.92 406.513 633.65 410.14 629.44C416.895 621.593 422.337 612.967 426.063 603.271C426.986 600.994 427.365 598.533 427.169 596.084C426.431 587.994 425.51 579.937 423.387 572.054C421.201 563.923 418.548 556.045 413.327 549.246C411.898 547.383 410.311 546.269 407.973 545.725C394.1 542.496 380.811 537.618 368.332 530.736C348.508 519.807 332.206 504.613 317.184 487.927C313.759 484.124 310.506 480.166 307.176 476.279C307.006 475.885 306.804 475.505 306.57 475.143C294.464 459.242 284.63 441.989 276.343 423.852C263.408 395.543 256.152 365.764 254.287 334.73C253.547 322.132 253.879 309.494 255.279 296.952C257.134 280.009 260.785 263.524 266.736 247.557C277.706 218.131 294.561 192.921 319.785 173.731C320.263 173.369 320.645 172.882 321.443 172.072C320.404 171.959 319.898 171.86 319.39 171.851C302.187 171.619 285.031 172.006 267.916 174.181C240.295 177.647 213.265 184.812 187.553 195.483C146.707 212.443 111.613 237.338 82.9196 271.181C66.2583 290.838 52.5157 312.309 41.938 335.781C28.1595 366.317 20.2462 398.365 17.9853 431.757C17.1639 444.348 17.2563 456.982 18.2617 469.56C19.1245 480.342 20.5582 491.07 22.5569 501.7C23.2203 505.293 24.301 508.801 25.191 512.344C25.3181 513.331 25.343 514.342 25.5862 515.301C30.4833 534.547 37.3869 553.225 46.1835 571.029C62.5988 604.241 85.0617 632.666 112.831 656.989C130.051 672.075 149.117 684.433 169.582 694.615C180.364 699.991 191.445 704.698 202.965 708.3ZM408.039 486.832C424.805 486.744 438.332 480.658 449.159 469.231C463.709 453.875 471.13 435.262 471.998 414.145C472.419 404.064 470.712 394.007 466.989 384.628C460.096 367.119 448.092 354.523 430.613 347.362C421.281 343.539 411.541 343.18 401.651 344.382C387.279 346.132 375.137 352.329 365.609 363.114C350.446 380.286 344.788 400.657 347.776 423.117C350.286 441.984 357.875 458.656 372.234 471.805C382.635 481.329 394.697 486.548 408.039 486.832ZM350.404 324.053C358.973 323.901 367.779 321.878 375.919 317.242C380.634 314.556 384.833 311.261 387.984 306.806C390.347 303.458 391.964 299.818 391.439 295.551C390.64 289.097 386.637 285.048 381.04 282.621C375.001 280.014 368.525 279.445 362.01 280.288C355.816 281.09 350.338 283.895 344.874 286.745C337.596 290.537 332.577 296.17 329.948 303.989C327.427 311.51 329.876 317.958 337.314 321.402C341.231 323.229 345.41 323.843 350.404 324.053ZM697.719 200.362C696.826 200.362 695.933 200.34 695.04 200.362C689.551 200.545 684.107 199.307 679.236 196.769C675.026 194.596 671.198 191.934 667.948 188.499C662.845 183.177 657.306 178.292 651.389 173.894C648.967 172.067 646.43 170.375 643.312 170.091C636.143 169.438 630.015 171.108 625.214 177.114C616.618 187.863 609.332 199.502 601.778 210.945C601.501 211.432 601.259 211.938 601.054 212.46C605.844 208.867 609.089 204.082 612.433 199.367C616.559 193.546 620.766 187.781 625.056 182.072C626.603 180.024 628.347 178.133 630.264 176.426C632.9 174.076 634.625 174.049 637.45 175.978C638.83 176.924 640.133 177.978 641.347 179.129C649.086 186.442 658.177 191.968 666.682 198.267C667.053 198.515 667.441 198.738 667.843 198.933C677.566 204.184 687.6 203.938 697.719 200.362ZM574.973 660.69C575.02 660.85 575.07 661.01 575.117 661.174C575.626 661.231 576.138 661.254 576.651 661.243C583.483 660.657 590.266 661.27 596.969 662.437C605.974 664.004 614.901 666 623.904 667.567C628.365 668.343 632.859 669.584 637.467 668.537C640.186 667.921 642.903 667.282 645.59 666.536C651.756 664.822 657.262 662.014 661.345 656.793C661.038 656.793 660.792 656.724 660.62 656.793C653.664 659.971 646.449 660.427 639.036 658.866C638.276 658.705 637.497 658.642 636.726 658.545C630.758 657.782 624.733 657.329 618.843 656.179C613.221 655.074 607.643 654.371 601.908 654.479C594.135 654.626 586.593 655.803 579.343 658.647C577.847 659.244 576.427 660.007 574.973 660.69ZM478.233 656.057C480.591 652.354 482.678 648.954 484.886 645.632C490.779 636.787 497.659 628.713 504.884 620.93C510.735 614.628 516.65 608.357 520.544 600.559C525.906 589.832 529.179 578.63 527.916 566.463C527.861 565.929 527.584 565.421 527.41 564.901C526.468 570.662 524.882 576.299 522.684 581.706C521.49 584.589 519.942 587.334 518.869 590.258C516.501 596.723 513.225 602.635 508.797 607.906C504.563 612.948 500.199 617.884 496.102 623.036C490.541 630.035 485.198 637.204 481.379 645.361C479.828 648.697 478.568 652.116 478.239 656.057H478.233ZM564.041 523.317L564.738 523.795C565.794 522.731 566.902 521.708 567.9 520.592C575.974 511.599 582.188 501.096 586.184 489.69C590.94 476.197 594.523 462.449 596.294 448.25C596.571 446.069 596.333 443.828 596.333 441.616C595.494 443.063 594.891 444.634 594.545 446.271C592.027 458.54 588.091 470.373 583.052 481.802C577.607 494.149 571.761 506.321 566.103 518.563C565.384 520.133 564.732 521.733 564.047 523.317H564.041ZM677.691 633.788C680.662 630.621 681.947 626.696 683.075 622.751C685.013 615.964 688.335 609.651 692.832 604.211C693.324 603.608 693.797 602.992 694.28 602.381C689.081 605.25 684.966 609.014 682.456 614.393C679.587 620.56 679.294 627.32 677.696 633.788H677.691Z" fill="#01010A"/>
<path d="M360.78 885.405C356.04 883.138 351.35 880.736 346.046 879.998C348.014 879.676 349.846 878.786 351.317 877.439C355.258 873.981 359.332 870.684 363.326 867.276C366.643 864.451 370.098 861.778 373.105 858.66C379.675 851.847 384.567 843.856 388.628 835.332C392.851 826.468 395.654 817.17 397.508 807.082C396.516 807.996 395.822 808.552 395.228 809.199C389.888 815.025 383.619 819.536 376.671 823.328C365.385 829.492 353.917 835.189 341.703 839.288C341.068 839.5 340.393 839.603 339.346 839.84C339.846 839.185 340.006 838.879 340.252 838.671C349.739 830.677 358.507 821.868 366.458 812.344C371.306 806.54 375.723 800.354 380.153 794.21C383.47 789.61 386.51 784.812 389.67 780.089C390.079 779.937 390.648 779.909 390.872 779.616C393.796 775.799 396.834 772.139 400.728 769.198C406.281 765.005 412.591 763.22 419.369 762.512C423.949 762.031 428.421 762.7 432.956 763.084C437.514 763.478 442.103 763.277 446.608 762.485C456.439 760.71 465.372 756.76 472.744 749.77C479.742 743.137 485.873 735.801 490.508 727.316C493.468 721.898 497.479 718.195 503.897 717.401C507.844 716.907 510.276 713.938 512.512 710.95C513.634 709.449 514.629 707.857 515.956 705.909C517.02 708.443 516.868 710.439 515.87 712.343C513.198 717.454 509.464 721.061 503.333 721.741C499.334 722.18 496.351 724.389 494.488 728.098C491.194 734.685 487.786 741.216 484.397 747.755C480.66 754.972 475.867 761.409 469.748 766.769C465.671 770.34 460.795 772.648 455.812 774.677C448.667 777.582 441.605 780.581 435.4 785.34C429.191 790.111 423.826 795.89 419.529 802.435C419.051 803.154 418.843 804.052 418.512 804.868L417.298 806.366L417.81 806.661L418.625 804.97C419.41 804.188 420.267 803.464 420.963 802.609C427.091 795.089 434.783 789.912 444.25 787.803C447.442 787.095 450.864 787.25 454.175 787.311C459.648 787.394 465.102 787.521 470.483 786.302C478.499 784.486 484.579 779.732 489.604 773.491C492.683 769.668 495.55 765.672 498.532 761.769C499.132 760.987 499.823 760.276 500.555 759.433C506.36 767.018 509.4 775.373 509.085 784.707C508.576 799.478 499.281 808.873 486.235 812.071C482.611 812.958 478.695 812.684 474.903 812.872C464.458 813.397 455.475 817.618 447.451 823.986C442.476 827.93 440.347 833.544 439.275 839.663C438.321 845.092 440.104 849.89 442.523 854.68C443.026 852.469 443.576 850.258 444.023 848.047C446.563 835.473 454.068 827.48 466.215 823.577C473.919 821.089 481.437 821.642 488.12 825.926C498.272 832.422 508.214 831.344 518.322 826.421C520.879 825.177 523.297 823.657 526.216 824.655C529.9 825.918 533.032 828.005 534.923 831.565C535.542 832.734 536.108 833.931 536.697 835.114C532.117 837.121 527.548 839.152 522.955 841.131C515.177 844.484 507.421 847.897 499.585 851.106C494.95 853.002 490.187 854.619 485.456 856.25C478.822 858.528 472.213 860.899 465.489 862.867C455.538 865.78 445.527 868.442 435.505 871.082C430.013 872.53 424.449 873.752 418.921 875.02C409.147 877.256 399.385 879.542 389.578 881.618C385.667 882.447 381.657 882.809 377.693 883.318C372.069 884.059 366.422 884.719 360.78 885.405Z" fill="#45465C"/>
<path d="M783.549 215.406C784.378 227.065 785.534 238.002 785.279 249.024C785.141 255.028 783.129 260.357 780.252 265.459C778.441 268.66 776.44 271.758 774.4 274.823C771.274 279.522 766.979 281.111 761.371 280.025C754.068 278.61 748.444 274.682 743.847 269.119C739.743 264.143 734.574 260.451 729.527 256.587C728.117 255.506 726.658 255.415 725.185 256.31C722.64 257.902 720.116 259.528 717.614 261.186C716.525 261.907 715.519 262.753 714.179 263.767C712.52 255.393 713.966 248.242 719.535 242.125C724.126 237.087 729.499 233.245 736.136 231.307C741.346 229.787 746.188 230.279 750.785 233.325C755.307 236.318 758.892 240.29 762.606 244.146C765.309 246.954 768.054 249.721 770.799 252.488C771.097 252.789 771.517 252.971 772.294 253.48C773.038 252.012 773.952 250.746 774.345 249.334C777.109 239.486 779.801 229.607 782.499 219.734C782.825 218.554 783.079 217.36 783.549 215.406ZM721.105 248.372C724.422 245.744 727.208 243.366 730.176 241.26C732.891 239.326 735.939 238.787 739.353 239.281C742.227 239.699 745.21 239.367 748.198 239.367C746.658 235.052 742.493 232.208 738.355 233.01C735.745 233.495 733.245 234.454 730.981 235.84C727.189 238.253 724.444 241.835 722.07 245.636C721.641 246.343 721.5 247.231 721.105 248.372Z" fill="#03030C"/>
<path d="M25.196 512.347C24.306 508.801 23.2253 505.29 22.5619 501.7C20.5633 491.07 19.1295 480.342 18.2667 469.56C17.2614 456.982 17.169 444.348 17.9903 431.757C20.2512 398.365 28.1645 366.317 41.943 335.781C52.5318 312.309 66.2661 290.838 82.9246 271.181C111.609 237.338 146.704 212.443 187.55 195.475C213.261 184.804 240.291 177.639 267.913 174.173C285.027 171.998 302.186 171.611 319.386 171.843C319.895 171.843 320.401 171.951 321.44 172.064C320.627 172.893 320.246 173.369 319.782 173.722C294.546 192.916 277.692 218.131 266.724 247.557C260.773 263.524 257.122 280.009 255.267 296.952C253.871 309.494 253.542 322.132 254.286 334.73C256.166 365.764 263.427 395.538 276.362 423.858C284.654 441.995 294.483 459.237 306.589 475.149C306.822 475.511 307.026 475.891 307.197 476.285C300.061 480.652 294.182 486.374 288.955 492.869C283.175 500.072 278.728 508.049 274.875 516.388C273.714 514.627 272.664 512.778 271.373 511.136C266.799 505.307 260.903 501.139 254.237 498.065C240.712 491.832 226.522 489.989 211.804 491.863C197.735 493.651 184.952 498.259 174.871 508.773C174.614 507.59 174.495 506.36 174.078 505.238C170.557 495.766 164.269 488.427 156.297 482.413C156.701 482.255 157.096 482.07 157.511 481.948C167.185 479.118 175.725 474.165 182.365 466.722C202.837 443.781 210.179 417.172 202.066 387.229C197.036 368.664 185.543 354.797 168.113 346.151C157.851 341.057 147.024 340.2 135.819 341.552C121.283 343.31 109.213 349.722 99.7324 360.756C86.1889 376.511 80.7687 394.957 82.0678 415.615C82.9163 429.071 87.2751 441.321 93.6904 452.996C97.0071 459.024 101.62 464.018 106.405 468.872C105.75 468.988 105.092 469.198 104.437 469.201C98.1487 469.234 92.0237 470.414 85.9623 471.91C65.6414 476.921 47.9713 486.581 33.7616 502.142C30.7654 505.412 28.0429 508.936 25.196 512.347ZM180.336 322.27C181.79 322.11 184.573 321.938 187.307 321.46C191.414 320.739 195.248 319.249 198.617 316.703C202.976 313.406 204.767 308.213 203.059 303.036C201.671 298.663 199.32 294.657 196.179 291.313C192.691 287.643 188.257 285.581 183.719 283.666C175.455 280.175 167.041 278.19 158.014 280.581C153.989 281.645 149.984 282.657 146.682 285.313C140.009 290.705 137.56 298.561 142.961 306.272C145.416 309.752 148.571 312.681 152.223 314.871C160.454 319.874 169.432 322.11 180.336 322.27Z" fill="#ECAD74"/>
<path d="M389.669 780.097C386.507 784.812 383.472 789.619 380.153 794.218C375.73 800.362 371.308 806.543 366.457 812.353C358.507 821.876 349.738 830.685 340.252 838.68C340.006 838.887 339.845 839.194 339.345 839.849C340.393 839.603 341.067 839.5 341.703 839.296C353.917 835.197 365.385 829.5 376.67 823.337C383.613 819.545 389.887 815.045 395.228 809.207C395.822 808.56 396.516 808.005 397.508 807.09C395.653 817.179 392.85 826.477 388.627 835.341C384.567 843.865 379.675 851.855 373.105 858.669C370.097 861.786 366.629 864.473 363.326 867.284C359.337 870.692 355.257 873.99 351.316 877.447C349.845 878.795 348.014 879.684 346.045 880.007C328.823 882.038 311.52 882.577 294.209 882.107C283.073 881.806 271.948 880.916 260.826 880.173C246.359 879.216 232.025 877.132 217.735 874.752C200.013 871.798 182.483 867.956 165.22 862.923C163.727 862.486 162.287 861.861 160.822 861.322L158.84 860.587L158.788 860.57C158.288 860.045 157.881 859.354 157.276 859.02C142.24 850.761 128.613 840.518 116.057 828.931C104.08 817.875 93.32 805.658 83.6295 792.527C83.2121 791.974 82.5405 791.584 81.9877 791.117L81.8799 790.951L82.8528 790.055C90.8877 794.124 98.743 798.605 106.999 802.162C120.744 808.085 135.076 812.093 150.117 813.118L151.333 813.19L154.067 813.168C154.371 814.719 155.637 814.157 156.505 814.166C167.008 814.254 177.528 814.351 188.039 814.301C191.71 814.285 195.422 814.144 199.04 813.583C211.751 811.64 224.114 807.869 235.745 802.388C236.407 802.023 237.046 801.617 237.658 801.172C231.732 800.606 226.049 800.315 220.48 799.475C212.066 798.209 203.868 795.951 196.157 792.327C177.434 783.549 161.814 770.702 148.462 755.063C138.119 742.949 129.324 729.784 122.69 715.229C119.31 707.805 115.545 700.552 112.333 693.059C110.592 688.999 109.65 684.596 108.348 680.345C119.528 688.512 130.46 697.042 141.958 704.737C152.884 712.048 164.269 718.706 175.679 725.257C194.555 736.048 214.293 745.258 234.69 752.791C250.675 758.777 267.343 762.753 284.309 764.627C294.812 765.771 305.381 766.459 315.92 767.358C329.188 768.491 342.488 768.325 355.758 767.684C369.334 767.029 382.787 765.058 396.112 762.286C396.842 762.134 397.593 762.073 398.666 761.926C396.292 768.554 392.781 774.229 389.669 780.097Z" fill="#FEFEEF"/>
<path d="M274.876 516.393C278.746 508.054 283.168 500.086 288.956 492.874C294.169 486.374 300.048 480.652 307.198 476.291C310.515 480.177 313.779 484.135 317.204 487.938C332.226 504.624 348.528 519.818 368.351 530.747C380.831 537.629 394.12 542.507 407.992 545.736C410.331 546.288 411.917 547.394 413.346 549.257C418.567 556.056 421.221 563.934 423.407 572.065C425.524 579.948 426.448 588.005 427.188 596.095C427.384 598.544 427.006 601.005 426.083 603.282C422.357 612.978 416.915 621.604 410.159 629.451C406.533 633.661 402.973 637.931 399.471 642.331C408.352 638.022 416.439 632.425 424.773 626.024C424.424 627.903 424.137 629.147 423.968 630.408C422.484 641.464 416.553 649.733 408.037 656.563C401.038 662.18 393.487 666.881 385.648 671.182C381.389 673.518 377.171 675.931 373.025 678.578C380.002 678.164 386.66 676.257 393.584 674.985C392.597 675.784 391.63 676.605 390.624 677.379C377.356 687.606 362.5 694.98 347.152 701.528C331.281 708.297 314.78 712.907 297.986 716.547C285.509 719.25 272.861 720.381 260.086 719.411C256.092 719.107 252.109 718.651 248.121 718.266L247.17 717.219C252.176 715.795 256.924 714.015 261.139 711.072C269.232 705.419 275.962 698.344 282.234 690.795C283.005 690.347 283.762 689.88 284.547 689.46C293.552 684.648 301.894 678.918 309.346 671.895C319.727 662.111 327.779 650.657 333.829 637.801C342.928 618.47 346.167 598.181 343.545 576.933C343.091 573.271 343.072 569.802 344.65 566.244C346.403 562.284 347.34 557.972 348.887 553.912C350.095 550.741 348.915 548.201 347.229 545.783C345.477 543.248 342.585 542.845 339.996 544.37C336.532 546.413 334.509 549.503 333.323 553.215C331.831 557.914 330.192 562.516 327.345 566.595L326.737 567.425L326.184 568.475L325.805 569.028L325.767 569.141C325.142 569.531 324.401 569.81 323.909 570.324C319.683 574.73 314.733 578.063 309.26 580.714C300.849 584.785 291.941 587.11 282.778 588.597C274.763 589.899 266.816 589.951 259.144 586.662C256.316 585.454 253.43 584.379 250.199 583.096C251.028 581.839 251.512 581.004 252.084 580.227C260.514 568.768 267.69 556.593 273.027 543.378C273.715 541.67 274.069 539.826 274.578 538.046C274.81 537.217 274.904 536.297 275.302 535.559C276.631 533.055 276.93 530.387 277.098 527.604C277.319 523.646 276.103 520.036 274.876 516.393Z" fill="#FEFEEF"/>
<path d="M156.292 482.407C164.264 488.422 170.552 495.76 174.073 505.232C174.49 506.354 174.609 507.584 174.866 508.767C174.264 509.558 173.62 510.323 173.061 511.147C168.954 517.2 166.757 523.787 167.608 531.183C168.07 535.202 169.78 538.806 171.453 542.416C170.184 543.729 171.406 544.981 171.768 546.053C176.511 560.148 183.358 573.444 192.078 585.49C192.677 586.319 193.183 587.226 193.805 588.254C184.341 590.064 175.648 589.796 167.091 586.118C156.209 581.441 146.121 575.689 137.959 566.944C136.173 565.031 134.435 563.074 132.677 561.139L132.124 559.445C132.041 559.144 131.955 558.845 131.872 558.544C130.131 552.72 129.274 546.778 129.902 540.719C130.156 538.281 129.415 536.335 128.014 534.525C126.413 532.46 122.804 531.147 120.897 531.979C117.58 533.436 114.816 535.542 114.484 539.464C114.255 542.332 114.235 545.212 114.426 548.082C114.678 552.195 114.855 556.358 115.651 560.382C117.414 569.301 120.902 577.654 124.819 585.811C129.6 595.761 136.181 604.238 145.046 610.85C148.608 613.506 152.348 615.927 155.974 618.431C156.193 623.528 156.281 628.658 156.663 633.76C157.492 645.024 160.687 655.646 165.93 665.629C172.362 677.879 181.027 688.238 192.293 696.354L192.907 696.862L193.736 697.467C194.269 698.368 194.64 699.441 195.369 700.143C197.766 702.454 200.292 704.632 202.766 706.862C203.227 707.28 203.999 707.661 202.981 708.302C191.461 704.709 180.38 699.994 169.598 694.629C149.145 684.446 130.073 672.089 112.848 657.003C85.0781 632.68 62.6152 604.255 46.1998 571.043C37.4044 553.235 30.5027 534.553 25.6081 515.304C25.3649 514.345 25.3317 513.333 25.2129 512.347C28.0598 508.939 30.7823 505.415 33.7812 502.139C47.9909 486.578 65.6611 476.918 85.9819 471.907C92.0433 470.411 98.1683 469.231 104.456 469.198C105.111 469.198 105.769 468.985 106.427 468.872C106.858 469.22 107.301 469.552 107.715 469.917C117.267 478.361 128.321 483.236 141.118 483.944C146.242 484.24 151.262 483.27 156.292 482.407Z" fill="#FEFEEF"/>
<path d="M211.812 165.804C201.383 169.778 190.957 173.757 180.535 177.741C178.363 178.571 176.257 179.577 173.777 180.652C173.487 178.612 173.158 176.818 172.981 175.008C171.121 155.806 168.305 136.762 163.443 118.07C161.232 109.628 158.597 101.336 154.402 93.6332C151.743 88.7548 148.564 84.2909 143.174 82.135C141.328 81.375 139.34 81.0188 137.345 81.0902C131.013 81.48 125.869 84.0781 122.168 89.5425C117.469 96.4801 114.457 104.139 111.889 112C107.864 124.319 105.114 136.961 103.063 149.739C101.493 159.518 100.299 169.364 98.9008 179.168C98.7129 180.491 98.4061 181.799 98.1546 183.115C97.74 183.571 97.1623 183.944 96.9329 184.496C92.071 195.843 87.3419 207.255 82.3667 218.576C77.5933 229.491 72.6513 240.332 67.6982 251.169C64.3178 258.563 60.7882 265.888 57.3526 273.262C56.9877 274.044 56.8772 274.945 56.6505 275.791L43.9555 295.001L43.4028 294.896C43.4028 290.838 43.3171 286.778 43.4276 282.734C43.5299 278.837 43.8588 274.945 44.0468 271.048C44.2983 265.813 44.3536 260.567 44.7737 255.346C45.6886 244.036 46.6587 232.725 47.8362 221.437C48.8312 211.918 49.9396 202.402 51.3603 192.938C56.7086 157.329 64.3123 122.299 78.2207 88.9096C84.6995 73.3649 92.7814 58.7545 103.727 45.8439C110.59 37.7482 118.428 30.8631 128.119 26.308C136.533 22.3528 145.341 21.0565 154.532 22.6181C155.505 22.7867 156.439 23.1958 157.392 23.4915C157.779 24.1411 158.02 24.9841 158.578 25.4097C164.327 29.7879 168.766 35.4402 173.103 41.0567C185.563 57.2039 194.444 75.2859 200.886 94.5702C204.59 105.662 207.725 116.934 209.549 128.509C210.743 136.085 212.064 143.656 211.862 151.389C211.735 156.193 211.821 161 211.812 165.804Z" fill="#ECAC74"/>
<path d="M408.039 486.832C394.706 486.556 382.635 481.329 372.234 471.805C357.862 458.656 350.286 441.984 347.776 423.117C344.788 400.657 350.446 380.275 365.609 363.114C375.137 352.334 387.284 346.132 401.652 344.382C411.547 343.18 421.276 343.553 430.613 347.362C448.092 354.523 460.096 367.119 466.989 384.629C470.713 394.007 472.419 404.064 471.998 414.145C471.13 435.262 463.706 453.875 449.159 469.231C438.332 480.647 424.805 486.744 408.039 486.832ZM410.709 356.837C407.713 357.113 404.7 357.29 401.723 357.716C389.772 359.421 379.96 365.115 372.386 374.38C360.501 388.915 356.552 405.748 359.586 424.082C361.98 438.548 367.994 451.376 379.031 461.459C388.169 469.806 398.816 474.417 411.326 473.82C423.636 473.231 434.128 468.184 442.357 459.171C455.9 444.325 462.122 426.763 460.345 406.583C458.963 391.058 452.664 377.995 440.577 367.998C431.956 360.855 422.147 356.676 410.709 356.837Z" fill="#56EEB9"/>
<path d="M108.348 680.347C109.65 684.596 110.592 688.999 112.334 693.062C115.545 700.555 119.31 707.808 122.69 715.232C129.324 729.787 138.119 742.952 148.462 755.066C161.814 770.705 177.434 783.552 196.157 792.33C203.88 795.954 212.078 798.212 220.48 799.478C226.063 800.307 231.732 800.608 237.658 801.175C237.046 801.619 236.408 802.025 235.746 802.391C224.114 807.872 211.751 811.642 199.04 813.585C195.422 814.138 191.71 814.287 188.039 814.304C177.536 814.354 167.016 814.257 156.505 814.168C155.637 814.168 154.371 814.721 154.067 813.171C153.984 810.382 151.989 808.596 150.54 806.537C145.535 799.436 139.987 792.659 135.565 785.213C123.782 765.365 114.313 744.486 110.194 721.558C109.056 715.221 108.259 708.8 107.69 702.385C107.173 696.511 107.151 690.591 106.985 684.695C106.944 683.261 107.179 681.815 107.345 680.38C107.678 680.343 108.013 680.332 108.348 680.347Z" fill="#B59C93"/>
<path d="M211.813 165.804C211.813 161 211.735 156.193 211.863 151.389C212.064 143.65 210.757 136.085 209.549 128.509C207.725 116.934 204.591 105.662 200.887 94.5701C194.444 75.2858 185.563 57.2038 173.106 41.0566C168.769 35.4402 164.33 29.7878 158.581 25.418C158.028 24.9923 157.782 24.1493 157.396 23.4998C161.522 23.6518 165.135 25.4511 168.769 27.1206C177.531 31.1588 184.864 37.1456 191.373 44.1771C206.105 60.0894 217.156 78.3732 226.108 98.0334C234.224 115.941 241.171 134.356 246.907 153.161C247.228 154.206 247.535 155.256 247.935 156.597C243.61 157.6 239.491 158.457 235.426 159.518C228.082 161.436 220.776 163.476 213.441 165.455C212.905 165.602 212.355 165.69 211.813 165.804Z" fill="#A96B48"/>
<path d="M587.176 579.984C592.811 578.246 598.381 576.264 604.089 574.813C620.924 570.529 635.916 562.698 649.493 551.96C658.594 544.774 667.807 537.701 676.953 530.556C678.688 529.199 680.341 527.728 682.627 525.813C682.058 527.557 681.712 528.577 681.394 529.605C677.224 543.135 668.556 553.95 660.217 565.001C655.43 571.344 648.857 575.299 642.312 579.338C631.833 585.808 620.327 589.564 608.351 592.102C596.128 594.683 583.953 597.511 571.7 599.935C561.814 601.871 552.449 605.874 544.218 611.682C535.793 617.58 527.675 623.865 520.155 630.883C512.277 638.235 505.682 646.677 499.789 655.679C498.629 657.448 497.429 659.192 495.74 660.723C496.99 657.619 498.139 654.471 499.508 651.422C502.794 644.106 505.724 636.577 511.155 630.449C511.466 630.159 511.804 629.899 512.164 629.672C515.92 627.624 518.159 624.145 520.522 620.789L520.436 620.875C522.883 618.829 525.412 616.87 527.761 614.719C536.451 606.765 546.114 600.266 556.531 594.777C566.308 589.625 576.084 584.528 586.628 581.093C587.036 580.938 587.434 580.759 587.82 580.556L587.176 579.984Z" fill="#56EDB8"/>
<path d="M350.405 324.053C345.41 323.843 341.231 323.224 337.323 321.413C329.885 317.958 327.436 311.51 329.957 304C332.577 296.181 337.596 290.548 344.882 286.756C350.347 283.906 355.825 281.1 362.019 280.299C368.534 279.456 375.01 280.022 381.049 282.632C386.646 285.047 390.648 289.108 391.447 295.562C391.972 299.829 390.341 303.469 387.992 306.817C384.841 311.272 380.643 314.556 375.927 317.253C367.779 321.877 358.973 323.901 350.405 324.053Z" fill="#FCFDEE"/>
<path d="M56.6621 275.791C56.8888 274.945 56.9993 274.044 57.3642 273.262C60.7915 265.887 64.3294 258.563 67.7098 251.169C72.6628 240.332 77.6048 229.491 82.3782 218.576C87.3313 207.244 92.0715 195.843 96.9417 184.488C97.1711 183.955 97.7488 183.57 98.1634 183.106C97.9478 186.976 97.7792 190.859 97.5055 194.729C97.1241 200.165 96.6017 205.591 96.2507 211.036C95.8002 218.029 95.5265 225.036 94.9986 232.023C94.9184 233.079 94.0588 234.234 93.2573 235.063C89.6641 238.731 85.8968 242.231 82.3091 245.904C73.5694 254.829 65.5704 264.428 58.0441 274.423C57.6183 274.913 57.1563 275.37 56.6621 275.791Z" fill="#A96B48"/>
<path d="M202.965 708.3C203.982 707.658 203.211 707.277 202.75 706.86C200.276 704.629 197.749 702.451 195.353 700.14C194.623 699.438 194.247 698.366 193.717 697.462C195.099 698.131 196.525 698.725 197.863 699.48C205.74 703.949 214.493 706.655 223.518 707.41C235.24 708.443 246.293 705.447 257.255 701.912C259.367 701.232 261.542 700.491 263.397 699.317C269.284 695.583 275.979 693.7 282.22 690.795C275.948 698.344 269.229 705.42 261.125 711.072C256.91 714.016 252.161 715.796 247.156 717.219L248.107 718.267C240.461 717.576 232.836 716.705 225.387 714.784C218.156 712.916 210.97 710.856 203.772 708.863C203.468 708.781 203.23 708.493 202.965 708.3Z" fill="#B19B92"/>
<path d="M697.719 200.362C687.6 203.938 677.567 204.184 667.849 198.949C667.447 198.754 667.059 198.532 666.688 198.283C658.183 191.984 649.095 186.459 641.353 179.145C640.139 177.994 638.836 176.941 637.456 175.994C634.625 174.06 632.901 174.093 630.269 176.442C628.353 178.15 626.609 180.041 625.062 182.089C620.767 187.788 616.559 193.553 612.439 199.383C609.094 204.099 605.85 208.878 601.06 212.476C601.264 211.955 601.506 211.449 601.784 210.962C609.338 199.508 616.624 187.88 625.22 177.13C630.021 171.124 636.148 169.455 643.318 170.107C646.436 170.384 648.973 172.083 651.394 173.91C657.312 178.308 662.851 183.194 667.954 188.515C671.204 191.951 675.032 194.613 679.242 196.785C684.112 199.324 689.556 200.562 695.046 200.378C695.933 200.34 696.826 200.362 697.719 200.362Z" fill="#52E6B3"/>
<path d="M574.973 660.69C576.427 660.007 577.847 659.244 579.34 658.659C586.59 655.814 594.133 654.637 601.905 654.49C607.64 654.383 613.218 655.093 618.84 656.19C624.73 657.34 630.755 657.793 636.723 658.556C637.494 658.653 638.273 658.717 639.034 658.877C646.447 660.439 653.661 659.982 660.618 656.804C660.792 656.724 661.035 656.804 661.342 656.804C657.262 662.025 651.756 664.833 645.587 666.547C642.9 667.293 640.183 667.929 637.464 668.548C632.856 669.596 628.362 668.355 623.901 667.578C614.898 666.011 605.971 664.015 596.966 662.448C590.263 661.282 583.48 660.668 576.648 661.254C576.135 661.265 575.623 661.242 575.114 661.185C575.069 661.011 575.02 660.859 574.973 660.69Z" fill="#53EBB6"/>
<path d="M81.9961 791.117C82.5489 791.584 83.2205 791.96 83.6379 792.526C93.3284 805.658 104.091 817.878 116.065 828.931C128.622 840.518 142.248 850.766 157.284 859.02C157.89 859.354 158.296 860.045 158.796 860.57C158.147 860.526 157.45 860.62 156.861 860.424C143.171 855.941 129.672 850.979 117.126 843.779C115.239 842.696 113.337 841.322 112.005 839.633C100.454 825.07 90.6999 809.356 82.477 792.689C82.2731 792.18 82.1122 791.654 81.9961 791.117Z" fill="#B49B92"/>
<path d="M635.601 348.312C641.801 352.798 648.868 354.866 656.314 356.157C661.071 356.986 665.687 358.603 670.662 359.946C670.137 360.654 670.01 361.013 669.769 361.121C655.095 367.829 639.609 363.445 629.968 354.349C627.842 352.37 625.855 350.246 624.023 347.992C619.625 342.5 613.763 339.824 606.997 339.039C595.783 337.74 585.23 339.968 575.437 345.612C574.194 346.331 573.085 347.27 571.91 348.125L569.146 350.092C572.248 343.459 585.495 336.297 597.22 334.446C598.401 334.611 599.586 334.929 600.764 334.913C605.009 334.855 609.199 335.09 613.392 335.908C620.36 337.265 625.723 341.369 631.082 345.601C632.458 346.679 634.092 347.422 635.601 348.312Z" fill="#55E9B5"/>
<path d="M574.259 154.446C572.242 147.755 569.79 141.157 568.292 134.349C564.699 118.07 559.787 102.271 552.98 87.0383C545.448 70.178 536.716 54.0087 526.293 38.757C524.662 36.3662 523.253 33.8288 521.741 31.3496C521.586 31.0953 521.536 30.7802 521.76 30.2246C523.468 32.024 525.276 33.7404 526.865 35.6393C537.369 48.2043 545.688 62.2095 553.4 76.5822C558.867 86.6922 563.721 97.1221 567.935 107.815C568.093 108.337 568.207 108.87 568.278 109.41C568.212 109.482 568.074 109.59 568.09 109.62C568.17 109.764 568.262 109.9 568.367 110.026L568.284 109.96C568.397 110.944 568.422 111.95 568.64 112.912C569.494 116.712 570.547 120.472 571.277 124.291C573.206 134.253 574.821 144.247 574.259 154.446Z" fill="#55E9B5"/>
<path d="M501.824 749.875C502.871 744.77 505.635 740.644 509.458 737.283C510.527 736.34 512.302 735.837 513.778 735.787C516.666 735.685 519.557 735.848 522.415 736.277C527.114 736.992 530.671 735.66 533.303 731.578C535.671 727.896 536.467 723.747 537.305 719.615C538.184 715.265 538.748 710.853 539.516 706.478C539.697 705.623 540.109 704.834 540.707 704.198C540.707 704.966 540.848 705.765 540.685 706.497C539.638 711.196 540.685 715.773 541.393 720.361C542.308 726.351 540.898 731.799 537.753 736.865C536.99 738.092 535.92 739.14 535.232 740.4C531.981 746.382 526.57 748.908 520.199 749.569C517.32 749.848 514.415 749.676 511.589 749.06C508.156 748.314 504.997 748.676 501.812 749.862L501.824 749.875Z" fill="#43445A"/>
<path d="M478.238 656.057C478.567 652.116 479.822 648.691 481.384 645.361C485.204 637.204 490.546 630.035 496.107 623.036C500.204 617.884 504.568 612.948 508.802 607.906C513.225 602.635 516.506 596.723 518.874 590.258C519.947 587.334 521.495 584.589 522.689 581.706C524.887 576.299 526.473 570.662 527.415 564.901C527.589 565.421 527.866 565.929 527.921 566.463C529.184 578.624 525.912 589.832 520.549 600.559C516.655 608.357 510.74 614.628 504.889 620.93C497.664 628.713 490.792 636.776 484.891 645.632C482.683 648.954 480.596 652.354 478.238 656.057Z" fill="#52E6B3"/>
<path d="M564.047 523.317C564.732 521.733 565.385 520.133 566.109 518.565C571.767 506.313 577.613 494.14 583.058 481.804C588.096 470.375 592.032 458.543 594.55 446.273C594.896 444.637 595.5 443.066 596.339 441.619C596.339 443.83 596.573 446.08 596.3 448.252C594.528 462.451 590.946 476.199 586.189 489.693C582.194 501.099 575.98 511.601 567.905 520.594C566.908 521.7 565.799 522.734 564.743 523.798L564.047 523.317Z" fill="#52E6B3"/>
<path d="M587.176 579.984L587.82 580.556C587.434 580.759 587.036 580.938 586.628 581.092C576.084 584.528 566.308 589.625 556.531 594.777C546.114 600.266 536.451 606.764 527.761 614.719C525.409 616.87 522.883 618.829 520.437 620.875C520.481 620.513 520.387 620.007 520.589 619.805C531.559 609.045 542.289 597.969 555.943 590.46C562.225 586.999 569.085 585.067 575.94 583.135C579.686 582.081 583.431 581.031 587.176 579.984Z" fill="#D0F9EC"/>
<path d="M568.085 795.017C566.192 793.32 564.456 791.385 562.369 789.975C560.575 788.739 558.527 787.918 556.376 787.574C554.224 787.229 552.022 787.369 549.931 787.982C548.016 788.519 546.402 790.13 544.484 791.36C543.041 790.531 542.466 789.381 543.005 787.568C543.806 784.887 544.434 782.192 546.902 780.381C551.546 776.979 562.552 778.062 564.951 785.724C565.913 788.795 567.24 791.752 568.4 794.76C568.29 794.848 568.188 794.931 568.085 795.017Z" fill="#43445A"/>
<path d="M677.696 633.788C679.294 627.32 679.587 620.559 682.461 614.393C684.971 609.009 689.095 605.25 694.286 602.381C693.802 602.991 693.329 603.608 692.837 604.21C688.34 609.651 685.018 615.964 683.081 622.751C681.953 626.695 680.668 630.62 677.696 633.788Z" fill="#52E6B3"/>
<path d="M574.259 154.446C574.812 144.247 573.206 134.253 571.302 124.297C570.572 120.477 569.519 116.718 568.665 112.917C568.447 111.956 568.422 110.949 568.309 109.965C569.207 112.177 570.312 114.352 570.965 116.643C572.692 122.724 574.528 128.805 575.719 134.982C576.371 138.388 575.907 142.028 575.763 145.555C575.64 148.994 575.216 152.416 574.494 155.781L574.259 154.446Z" fill="#D0F9EC"/>
<path d="M635.601 348.312C634.092 347.417 632.458 346.679 631.093 345.598C625.736 341.366 620.374 337.262 613.404 335.905C609.211 335.075 605.02 334.852 600.775 334.91C599.597 334.926 598.412 334.608 597.231 334.443C602.267 333.526 607.403 333.295 612.5 333.754C619.868 334.39 625.609 338.26 630.681 343.329C632.334 344.979 633.962 346.651 635.601 348.312Z" fill="#D0F9EC"/>
<path d="M520.522 620.781C518.159 624.142 515.92 627.616 512.164 629.664C514.766 626.642 517.372 623.625 519.983 620.612C520.033 620.562 520.337 620.728 520.522 620.781Z" fill="#D0F9EC"/>
<path d="M82.8616 790.055L81.8887 790.951C81.546 790.42 81.206 789.89 80.8633 789.362L81.159 788.969L82.8616 790.055Z" fill="#B49B92"/>
<path d="M501.804 749.859L501.589 750.705C501.666 750.428 501.746 750.152 501.824 749.876L501.804 749.859Z" fill="#43445A"/>
<path d="M568.389 794.76L568.713 795.747C568.505 795.501 568.298 795.257 568.088 795.014C568.187 794.931 568.29 794.848 568.389 794.76Z" fill="#43445A"/>
<path d="M568.392 110.032C568.288 109.905 568.195 109.769 568.116 109.626C568.099 109.595 568.237 109.487 568.304 109.416C568.364 109.544 568.414 109.677 568.456 109.814C568.458 109.877 568.411 109.957 568.392 110.032Z" fill="#D0F9EC"/>
<path d="M418.63 804.981L417.815 806.673L417.304 806.377L418.517 804.879L418.63 804.981Z" fill="#01010A"/>
<path d="M721.104 248.372C721.5 247.23 721.641 246.343 722.08 245.641C724.454 241.841 727.199 238.259 730.991 235.846C733.256 234.46 735.755 233.501 738.366 233.015C742.512 232.208 746.658 235.052 748.208 239.372C745.209 239.372 742.227 239.704 739.363 239.287C735.95 238.792 732.901 239.339 730.187 241.266C727.205 243.366 724.441 245.743 721.104 248.372Z" fill="#52E6B3"/>
<path d="M156.293 482.407C151.262 483.269 146.243 484.226 141.091 483.941C128.293 483.234 117.24 478.358 107.688 469.914C107.273 469.549 106.831 469.217 106.4 468.869C101.61 464.013 97.0024 459.018 93.6856 452.99C87.2704 441.323 82.906 429.065 82.063 415.61C80.764 394.952 86.1869 376.51 99.7277 360.75C109.208 349.716 121.287 343.304 135.814 341.546C147.019 340.194 157.846 341.051 168.109 346.145C185.538 354.791 197.031 368.658 202.061 387.224C210.174 417.166 202.833 443.764 182.36 466.716C175.726 474.159 167.158 479.112 157.506 481.943C157.091 482.064 156.696 482.25 156.293 482.407ZM185.057 389.017C185.057 380.861 181.227 373.724 174.488 369.191C168.507 365.167 161.774 364.36 154.93 365.278C141.956 367.024 134.344 377.212 134.789 389.178C135.065 396.693 138.302 403.155 143.827 408.371C148.144 412.451 153.283 414.673 159.203 414.85C173.518 415.281 185.071 403.689 185.057 389.017ZM124.634 457.288L124.91 457.219C124.463 455.4 124.217 453.501 123.528 451.774C121.317 446.163 117.683 441.547 112.893 437.907C111.498 436.799 109.943 435.912 108.279 435.276C105.571 434.319 102.635 434.195 100.355 436.16C98.119 438.095 98.7354 440.754 99.4236 443.313C101.082 449.535 105.209 453.985 109.927 457.979C111.95 459.695 114.045 461.406 116.339 462.711C121.748 465.782 123.946 462.96 124.631 457.957C124.648 457.731 124.649 457.503 124.634 457.277V457.288Z" fill="#01010A"/>
<path d="M171.453 542.416C169.795 538.806 168.07 535.202 167.608 531.183C166.757 523.787 168.954 517.2 173.062 511.147C173.614 510.318 174.264 509.558 174.866 508.767C184.947 498.264 197.73 493.645 211.799 491.857C226.517 489.983 240.707 491.827 254.232 498.06C260.904 501.133 266.799 505.301 271.368 511.13C272.665 512.789 273.709 514.632 274.87 516.382C276.097 520.025 277.314 523.635 277.081 527.609C276.913 530.393 276.614 533.06 275.285 535.564C274.887 536.313 274.793 537.222 274.561 538.052C274.292 538.242 274.049 538.467 273.839 538.721C269.751 545.384 263.994 550.23 257.156 553.828C240.019 562.836 221.918 564.669 203.148 560.832C193.722 558.898 185.013 555.213 177.702 548.768C175.475 546.827 173.526 544.55 171.453 542.416ZM182.479 517.54C187.528 514.254 192.783 511.636 198.626 510.329C207.47 508.35 216.464 507.825 225.489 507.75C234.118 507.678 242.548 509.229 250.918 511.166C251.694 511.346 252.499 511.387 253.292 511.492L253.682 510.848C252.374 509.395 251.213 507.761 249.726 506.52C244.049 501.774 237.125 500.456 230.049 500.163C219.571 499.751 209.414 501.94 199.596 505.367C192.81 507.733 187.191 512.114 182.479 517.526V517.54Z" fill="#02010A"/>
<path d="M180.336 322.27C169.432 322.121 160.455 319.885 152.24 314.871C148.588 312.681 145.433 309.752 142.978 306.272C137.586 298.561 140.026 290.705 146.699 285.313C149.988 282.657 153.993 281.645 158.031 280.581C167.055 278.19 175.469 280.175 183.736 283.666C188.275 285.581 192.708 287.643 196.196 291.314C199.337 294.657 201.688 298.663 203.076 303.036C204.784 308.213 202.993 313.406 198.634 316.703C195.265 319.249 191.431 320.739 187.324 321.46C184.574 321.927 181.79 322.099 180.336 322.27Z" fill="#FFFEEF"/>
<path d="M282.203 690.795C275.962 693.7 269.268 695.582 263.381 699.317C261.526 700.491 259.351 701.232 257.239 701.912C246.277 705.447 235.224 708.443 223.502 707.41C214.477 706.655 205.723 703.949 197.846 699.48C196.514 698.725 195.082 698.131 193.7 697.462L192.888 696.859L192.274 696.351C181.008 688.236 172.343 677.876 165.911 665.626C160.66 655.643 157.481 645.021 156.644 633.758C156.262 628.653 156.174 623.531 155.955 618.429C152.329 615.924 148.589 613.503 145.027 610.847C136.163 604.236 129.582 595.75 124.8 585.808C120.872 577.638 117.395 569.285 115.632 560.379C114.836 556.355 114.659 552.192 114.407 548.08C114.216 545.209 114.236 542.329 114.465 539.461C114.802 535.539 117.555 533.433 120.878 531.977C122.785 531.147 126.406 532.458 127.995 534.522C129.396 536.333 130.137 538.278 129.883 540.716C129.255 546.775 130.112 552.718 131.854 558.541C131.936 558.843 132.022 559.141 132.105 559.442L132.658 561.137C132.79 562.223 132.724 563.381 133.092 564.384C134.659 568.68 135.986 573.121 138.067 577.165C145.684 591.958 156.655 602.776 173.736 605.91C180.071 607.069 186.351 607.503 192.457 604.752C202.202 600.366 210.072 593.812 215.638 584.642C217.319 581.878 218.858 579.011 220.265 576.095C221.235 574.08 222.603 572.95 225.11 572.92C225.898 574.224 226.882 575.587 227.598 577.066C231.398 585.009 236.166 592.129 243.076 597.853C246.736 600.894 250.556 603.475 254.796 605.482C260.876 608.362 267.383 608.945 274.047 609.164C280.539 609.385 286.982 607.95 292.767 604.996C307.889 597.444 318.436 585.534 325.603 570.429C325.778 570.067 325.708 569.6 325.755 569.166L325.794 569.053L326.173 568.5L326.726 567.45L327.334 566.62C330.181 562.541 331.82 557.928 333.312 553.24C334.498 549.52 336.521 546.429 339.984 544.395C342.574 542.869 345.465 543.273 347.218 545.808C348.876 548.226 350.07 550.766 348.876 553.936C347.328 557.997 346.389 562.309 344.639 566.269C343.066 569.827 343.086 573.295 343.533 576.958C346.163 598.18 342.924 618.469 333.818 637.826C327.768 650.681 319.722 662.149 309.335 671.92C301.872 678.943 293.541 684.673 284.536 689.485C283.743 689.88 282.986 690.348 282.203 690.795ZM213.933 662.536L213.817 663.26C213.46 664.996 213.104 666.732 212.661 668.896C212.269 668.001 211.959 667.531 211.857 667.022C210.884 662.141 209.892 657.265 209.018 652.373C208.668 650.636 208.536 648.861 208.626 647.091C208.933 643.122 209.486 639.169 209.939 635.206C210.019 635.126 210.154 635.054 210.166 634.966C211.373 626.784 213.701 618.901 216.523 611.145C216.722 610.593 216.835 610.007 217.134 608.893C210.014 615.839 202.144 620.333 193.087 622.624C184.187 624.874 175.248 624.905 166.135 622.362V626.98C166.05 633.371 167.086 639.609 168.822 645.726C173.573 662.467 182.401 676.434 196.943 686.398C204.618 691.649 213.021 695.024 222.418 695.569C223.032 695.759 223.637 696.083 224.262 696.121C236.534 696.901 247.803 692.951 258.994 688.675C259.706 688.351 260.393 687.976 261.051 687.553C266.167 684.679 270.448 680.906 274.318 676.453C281.029 668.733 286.004 660.162 289.008 650.386C290.844 644.418 292.878 638.517 294.89 632.602C296.054 629.156 297.309 625.742 298.76 621.624C290.512 625.433 282.436 626.646 274.16 627.168C266.791 627.633 259.644 626.845 252.819 624.059C244.461 620.643 237.869 614.805 231.929 608.158C231.376 607.527 230.774 606.925 230.028 606.134C229.45 607.14 228.922 607.859 228.593 608.666C226.758 613.337 224.616 617.931 223.247 622.74C220.406 632.707 217.93 642.779 215.434 652.84C214.743 655.626 214.516 658.523 214.074 661.37C214.046 661.757 213.996 662.147 213.947 662.536H213.933Z" fill="#03020B"/>
<path d="M325.758 569.158C325.711 569.581 325.78 570.059 325.606 570.421C318.439 585.526 307.891 597.436 292.769 604.987C286.984 607.942 280.542 609.376 274.049 609.155C267.385 608.937 260.881 608.354 254.798 605.474C250.558 603.467 246.738 600.88 243.079 597.845C236.169 592.121 231.414 585.001 227.6 577.057C226.887 575.568 225.903 574.205 225.113 572.911C222.606 572.942 221.243 574.072 220.267 576.087C218.86 579.003 217.321 581.867 215.64 584.633C210.074 593.804 202.205 600.358 192.459 604.744C186.353 607.494 180.073 607.06 173.738 605.902C156.657 602.773 145.687 591.955 138.083 577.157C136.002 573.113 134.675 568.671 133.108 564.376C132.74 563.373 132.806 562.215 132.674 561.128C134.432 563.063 136.17 565.028 137.956 566.933C146.118 575.678 156.198 581.43 167.088 586.107C175.657 589.785 184.338 590.054 193.802 588.243C193.166 587.223 192.674 586.308 192.075 585.479C183.355 573.433 176.508 560.137 171.765 546.043C171.403 544.97 170.181 543.718 171.45 542.405C173.523 544.539 175.471 546.828 177.696 548.779C185.007 555.225 193.728 558.917 203.142 560.844C221.912 564.68 240.024 562.848 257.15 553.84C263.988 550.247 269.745 545.396 273.833 538.732C274.043 538.478 274.286 538.253 274.555 538.063C274.046 539.843 273.692 541.687 273.004 543.395C267.667 556.609 260.492 568.785 252.061 580.244C251.489 581.021 251 581.856 250.176 583.113C253.408 584.396 256.293 585.471 259.121 586.679C266.794 589.957 274.726 589.904 282.756 588.614C291.918 587.127 300.826 584.802 309.237 580.731C314.721 578.074 319.671 574.747 323.886 570.341C324.392 569.827 325.133 569.548 325.758 569.158Z" fill="#B49B92"/>
<path d="M132.119 559.42C132.036 559.119 131.95 558.82 131.867 558.519C131.953 558.829 132.039 559.127 132.119 559.42Z" fill="#B49B92"/>
<path d="M410.709 356.836C422.147 356.676 431.956 360.855 440.577 367.986C452.664 377.984 458.977 391.046 460.345 406.572C462.122 426.749 455.895 444.314 442.357 459.159C434.128 468.184 423.636 473.231 411.326 473.808C398.816 474.405 388.169 469.795 379.031 461.448C367.994 451.365 361.98 438.537 359.586 424.07C356.546 405.737 360.499 388.904 372.386 374.368C379.96 365.104 389.772 359.41 401.723 357.704C404.7 357.29 407.713 357.121 410.709 356.836Z" fill="#EDFFFF"/>
<path d="M185.058 389.017C185.071 403.689 173.518 415.275 159.203 414.85C153.283 414.673 148.147 412.451 143.827 408.371C138.299 403.155 135.068 396.693 134.789 389.178C134.344 377.212 141.956 367.024 154.93 365.278C161.763 364.36 168.507 365.167 174.488 369.191C181.227 373.724 185.049 380.866 185.058 389.017Z" fill="#FDFDFD"/>
<path d="M124.634 457.277C124.649 457.5 124.649 457.723 124.634 457.946C123.962 462.949 121.765 465.771 116.342 462.7C114.048 461.395 111.952 459.684 109.929 457.968C105.208 453.974 101.085 449.524 99.4261 443.302C98.7379 440.743 98.1215 438.076 100.358 436.149C102.638 434.184 105.573 434.308 108.282 435.265C109.945 435.901 111.501 436.788 112.895 437.896C117.685 441.542 121.309 446.152 123.531 451.763C124.216 453.49 124.462 455.389 124.913 457.208L124.634 457.277Z" fill="#FDFDFD"/>
<path d="M182.479 517.526C187.177 512.115 192.81 507.736 199.596 505.365C209.414 501.938 219.571 499.748 230.049 500.16C237.125 500.437 244.049 501.758 249.726 506.517C251.213 507.759 252.374 509.392 253.682 510.846L253.292 511.49C252.499 511.385 251.694 511.343 250.918 511.164C242.548 509.229 234.118 507.676 225.489 507.747C216.464 507.822 207.47 508.347 198.626 510.326C192.783 511.623 187.528 514.24 182.479 517.526Z" fill="#F3F6F6"/>
<path d="M209.952 635.203C209.499 639.164 208.946 643.117 208.639 647.088C208.549 648.859 208.681 650.633 209.032 652.37C209.905 657.268 210.897 662.144 211.87 667.02C211.973 667.528 212.282 667.998 212.675 668.894C213.117 666.729 213.473 664.994 213.83 663.258L213.946 662.534C213.996 662.144 214.046 661.754 214.093 661.364C214.645 660.466 215.339 659.626 215.704 658.661C218.341 651.657 221.105 644.717 225.712 638.714C227.371 636.541 229.209 634.487 231.24 632.061C241.133 645.972 253.269 656.107 270.376 659.977C268.004 663.092 266.161 665.886 263.949 668.349C256.379 676.768 247.614 683.811 238.258 690.132C233.482 693.36 228.451 695.936 222.429 695.555C213.031 695.002 204.629 691.647 196.953 686.384C182.412 676.434 173.584 662.453 168.832 645.712C167.097 639.595 166.068 633.357 166.146 626.967C166.828 627.293 167.572 627.519 168.188 627.956C175.966 633.307 184.656 635.576 193.998 635.74C198.791 635.822 203.545 635.532 208.258 634.581C208.753 634.49 209.38 634.985 209.952 635.203Z" fill="#FEC18D"/>
<path d="M222.415 695.566C228.438 695.942 233.471 693.371 238.245 690.143C247.601 683.822 256.365 676.779 263.936 668.36C266.147 665.897 267.991 663.108 270.362 659.988C253.256 656.118 241.119 645.974 231.227 632.072C229.209 634.498 227.382 636.552 225.699 638.724C221.091 644.728 218.327 651.668 215.69 658.672C215.326 659.637 214.624 660.477 214.079 661.375C214.521 658.528 214.748 655.632 215.439 652.846C217.927 642.785 220.414 632.713 223.253 622.746C224.635 617.936 226.763 613.348 228.598 608.672C228.916 607.864 229.455 607.146 230.033 606.14C230.779 606.93 231.373 607.522 231.934 608.163C237.874 614.797 244.466 620.648 252.825 624.064C259.649 626.85 266.797 627.638 274.165 627.174C282.432 626.651 290.509 625.438 298.765 621.629C297.305 625.748 296.051 629.161 294.895 632.608C292.897 638.523 290.849 644.424 289.014 650.391C286.009 660.167 281.034 668.739 274.323 676.458C270.453 680.911 266.166 684.684 261.056 687.559C260.398 687.982 259.711 688.357 258.999 688.681C247.808 692.957 236.539 696.906 224.267 696.127C223.634 696.08 223.029 695.757 222.415 695.566Z" fill="#B37657"/>
<path d="M209.952 635.203C209.38 634.985 208.753 634.49 208.244 634.592C203.545 635.543 198.777 635.833 193.985 635.75C184.642 635.587 175.952 633.318 168.174 627.967C167.558 627.544 166.815 627.304 166.132 626.977V622.359C175.253 624.902 184.183 624.871 193.083 622.621C202.147 620.33 210.016 615.836 217.13 608.89C216.832 609.995 216.718 610.59 216.519 611.143C213.708 618.898 211.381 626.781 210.162 634.963C210.168 635.051 210.032 635.123 209.952 635.203Z" fill="#B37657"/>
</svg>